<svg aria-hidden="true" style="position: absolute; width: 0; height: 0; overflow: hidden;" version="1.1" xmlns="http://www.w3.org/2000/svg" xmlns:xlink="http://www.w3.org/1999/xlink">
<defs>

<symbol id="icon-logo" viewBox="0 0 32 32">
<path d="M2.497 23.465v-15.286c0-1.113 0.904-2.017 2.017-2.017h23.099c1.112 0 2.019 0.902 2.019 2.017v15.286c0 1.114-0.905 2.017-2.019 2.017h-23.099c-1.113 0-2.017-0.903-2.017-2.017zM15.362 24.207v-16.767h-10.848c-0.409 0-0.74 0.332-0.74 0.74v15.286c0 0.409 0.331 0.741 0.74 0.741h10.848zM20.302 20.175c0-0.194-0.16-0.355-0.355-0.355h-2.195c-0.195 0-0.355 0.161-0.355 0.355 0 0.196 0.159 0.355 0.355 0.355h2.195c0.195 0 0.355-0.159 0.355-0.355zM25.886 20.175c0-0.194-0.161-0.355-0.355-0.355h-2.194c-0.196 0-0.355 0.161-0.355 0.355 0 0.196 0.159 0.355 0.355 0.355h2.194c0.195 0 0.355-0.159 0.355-0.355zM21.21 18.889c0-0.194-0.16-0.355-0.355-0.355h-3.112c-0.196 0-0.355 0.161-0.355 0.355 0 0.195 0.159 0.355 0.355 0.355h3.112c0.195 0 0.355-0.159 0.355-0.355zM26.793 18.889c0-0.194-0.16-0.355-0.355-0.355h-3.113c-0.195 0-0.354 0.161-0.354 0.355 0 0.195 0.159 0.355 0.354 0.355h3.113c0.195 0 0.355-0.159 0.355-0.355zM20.302 16.401c0-0.195-0.16-0.355-0.355-0.355h-2.195c-0.195 0-0.355 0.161-0.355 0.355s0.159 0.355 0.355 0.355h2.195c0.195 0 0.355-0.159 0.355-0.355zM25.886 16.401c0-0.195-0.161-0.355-0.355-0.355h-2.194c-0.196 0-0.355 0.161-0.355 0.355s0.159 0.355 0.355 0.355h2.194c0.195 0 0.355-0.159 0.355-0.355zM21.21 15.116c0-0.195-0.16-0.355-0.355-0.355h-3.112c-0.196 0-0.355 0.161-0.355 0.355s0.159 0.354 0.355 0.354h3.112c0.195 0 0.355-0.159 0.355-0.354zM26.793 15.116c0-0.195-0.16-0.355-0.355-0.355h-3.113c-0.195 0-0.354 0.161-0.354 0.355s0.159 0.354 0.354 0.354h3.113c0.195 0 0.355-0.159 0.355-0.354zM20.303 12.407c0-0.195-0.16-0.355-0.355-0.355h-2.195c-0.195 0-0.354 0.16-0.354 0.355s0.159 0.354 0.354 0.354h2.195c0.195 0 0.355-0.159 0.355-0.354zM25.887 12.407c0-0.195-0.161-0.355-0.355-0.355h-2.194c-0.195 0-0.355 0.16-0.355 0.355s0.16 0.354 0.355 0.354h2.194c0.195 0 0.355-0.159 0.355-0.354zM21.211 11.121c0-0.194-0.16-0.355-0.355-0.355h-3.112c-0.196 0-0.355 0.161-0.355 0.355 0 0.196 0.159 0.355 0.355 0.355h3.112c0.195 0 0.355-0.159 0.355-0.355zM26.795 11.121c0-0.194-0.161-0.355-0.355-0.355h-3.113c-0.195 0-0.354 0.161-0.354 0.355 0 0.196 0.159 0.355 0.354 0.355h3.113c0.195 0 0.355-0.159 0.355-0.355z"></path>
<path d="M4.738 8.722c0-0.337 0.275-0.613 0.613-0.613s0.612 0.275 0.612 0.613c0 0.337-0.274 0.611-0.612 0.611s-0.613-0.275-0.613-0.611zM6.471 8.722c0-0.337 0.275-0.613 0.612-0.613s0.613 0.275 0.613 0.613c0 0.337-0.275 0.611-0.613 0.611s-0.612-0.275-0.612-0.611zM8.204 8.722c0-0.337 0.275-0.613 0.611-0.613s0.613 0.275 0.613 0.613c0 0.337-0.275 0.611-0.613 0.611s-0.611-0.275-0.611-0.611z"></path>
<path d="M9.333 20.859c-0.054 0-0.108-0.003-0.179-0.007-0.060-0.004-0.137-0.011-0.213-0.021-0.111-0.010-0.204-0.024-0.293-0.045-0.051-0.004-0.091-0.013-0.131-0.021-0.133-0.027-0.237-0.054-0.339-0.089-0.027-0.005-0.051-0.013-0.075-0.020-0.144-0.045-0.257-0.088-0.368-0.137-0.012-0.004-0.022-0.007-0.030-0.012-0.41-0.178-0.765-0.401-1.083-0.667-0.107-0.091-0.214-0.189-0.313-0.293-0.007-0.005-0.013-0.013-0.020-0.021-0.753-0.782-1.217-1.849-1.217-3.024 0-1.173 0.463-2.239 1.217-3.020 0.007-0.008 0.013-0.015 0.020-0.021s0.016-0.015 0.025-0.024c0.045-0.047 0.083-0.083 0.123-0.113 0.067-0.069 0.125-0.121 0.185-0.169 0.049-0.042 0.095-0.078 0.145-0.109 0.069-0.059 0.129-0.103 0.193-0.144 0.048-0.034 0.090-0.063 0.137-0.087 0.081-0.055 0.152-0.098 0.226-0.136 0.034-0.020 0.065-0.035 0.099-0.050 0.103-0.057 0.195-0.099 0.29-0.139 0.004-0.001 0.007-0.003 0.011-0.004 0.533-0.223 1.097-0.342 1.687-0.342 0.884 0 1.708 0.265 2.423 0.741 0.004 0.001 0.007 0.004 0.011 0.007 0.091 0.059 0.18 0.125 0.287 0.214 0.018 0.011 0.035 0.026 0.053 0.041 0.075 0.060 0.148 0.125 0.233 0.213 0.027 0.019 0.051 0.042 0.079 0.073 0.012 0.009 0.022 0.018 0.031 0.027 0.006 0.007 0.013 0.015 0.021 0.025 0.751 0.781 1.217 1.845 1.217 3.017 0 1.175-0.466 2.242-1.22 3.024-0.008 0.008-0.013 0.015-0.019 0.021-0.259 0.267-0.553 0.499-0.885 0.693-0.034 0.026-0.073 0.049-0.112 0.070-0.064 0.037-0.128 0.071-0.204 0.102-0.056 0.033-0.113 0.059-0.178 0.087-0.059 0.027-0.117 0.051-0.19 0.074-0.069 0.031-0.142 0.057-0.21 0.078-0.165 0.054-0.335 0.098-0.206 0.062-0.261 0.061-0.221 0.053-0.211 0.050 0.012-0.001 0.021-0.005-0.209 0.041 0.105-0.017-0.036 0.007-0.22 0.029 0.035-0.003 0.071-0.007-0.24 0.021 0.181-0.009 0.010 0.004-0.16 0.007-0.035 0.003-0.064 0.003-0.093 0.003-0.030 0-0.058 0-0.095-0.003zM9.475 20.147c0.191-0.034 0.48-0.292 0.735-0.939-0.251-0.021-0.513-0.033-0.781-0.033-0.271 0-0.533 0.012-0.785 0.033 0.256 0.65 0.543 0.904 0.733 0.939 0.011 0.003 0.021 0.003 0.033 0.001h0.038c0.009 0.002 0.018 0.002 0.027-0.001zM10.757 19.891c0.13-0.043 0.254-0.099 0.365-0.161 0.062-0.026 0.121-0.059 0.123-0.073 0.121-0.063 0.234-0.138 0.343-0.217l-0.004-0.001-0.138-0.037c-0.163-0.039-0.335-0.074-0.513-0.103-0.021 0.057-0.041 0.112-0.063 0.166-0.067 0.168-0.139 0.327-0.22 0.469 0.063-0.014 0.121-0.036 0.107-0.043zM7.984 19.464c-0.023-0.054-0.043-0.109-0.063-0.166-0.179 0.029-0.351 0.065-0.513 0.103l-0.141 0.037-0.003 0.001c0.102 0.075 0.209 0.146 0.323 0.206 0.017 0.021 0.083 0.058 0.152 0.088 0.092 0.052 0.203 0.105 0.319 0.143 0.041 0.027 0.087 0.045 0.139 0.055-0.078-0.143-0.15-0.301-0.214-0.468zM7.723 18.611c-0.123-0.528-0.2-1.124-0.219-1.757h-1.707c0.075 0.772 0.389 1.473 0.866 2.028 0.32-0.111 0.675-0.202 1.060-0.271zM13.059 16.855h-1.707c-0.020 0.631-0.098 1.229-0.22 1.757 0.385 0.068 0.74 0.16 1.059 0.271 0.477-0.555 0.793-1.256 0.868-2.028zM9.429 18.467c0.342 0 0.675 0.017 0.996 0.048 0.117-0.485 0.195-1.048 0.217-1.66h-2.431c0.022 0.612 0.1 1.175 0.216 1.66 0.322-0.031 0.657-0.048 1.001-0.048zM7.723 14.395c-0.385-0.069-0.741-0.159-1.060-0.27-0.477 0.553-0.791 1.253-0.865 2.021h1.705c0.021-0.629 0.097-1.223 0.219-1.751zM10.424 14.491c-0.321 0.031-0.654 0.047-0.995 0.047-0.343 0-0.678-0.016-1-0.047-0.117 0.484-0.194 1.046-0.217 1.655h2.431c-0.023-0.609-0.101-1.171-0.219-1.655zM12.192 14.125c-0.32 0.111-0.677 0.201-1.061 0.271 0.123 0.526 0.2 1.12 0.221 1.749h1.705c-0.074-0.767-0.389-1.466-0.865-2.021zM10.207 13.799c-0.277-0.702-0.591-0.943-0.779-0.943-0.195 0-0.507 0.247-0.781 0.943 0.251 0.020 0.513 0.030 0.783 0.030 0.267 0 0.528-0.010 0.778-0.030zM11.447 13.606l0.145-0.037c-0.111-0.082-0.227-0.157-0.343-0.217-0.053-0.043-0.113-0.075-0.129-0.077-0.125-0.067-0.255-0.127-0.387-0.171-0.048-0.029-0.1-0.048-0.086-0.034 0.082 0.147 0.156 0.308 0.224 0.476 0.021 0.055 0.041 0.109 0.061 0.165 0.18-0.030 0.352-0.065 0.515-0.105zM7.984 13.546c0.065-0.168 0.139-0.329 0.22-0.475 0.001-0.008-0.059 0.013-0.113 0.045-0.117 0.037-0.236 0.093-0.349 0.156-0.029 0.007-0.095 0.044-0.155 0.090-0.111 0.056-0.22 0.129-0.325 0.207l0.146 0.037c0.161 0.040 0.335 0.075 0.514 0.105 0.019-0.056 0.041-0.111 0.062-0.165z"></path>
</symbol>
<symbol id="icon-telegram" viewBox="0 0 32 32">
<path d="M27.613 4.873c0 0 2.59-1.010 2.374 1.443-0.072 1.010-0.719 4.545-1.223 8.369l-1.727 11.326c0 0-0.144 1.659-1.439 1.948s-3.238-1.010-3.598-1.299c-0.288-0.216-5.396-3.463-7.195-5.050-0.504-0.433-1.079-1.299 0.072-2.309l7.555-7.214c0.863-0.866 1.727-2.886-1.871-0.433l-10.073 6.854c0 0-1.151 0.721-3.31 0.072l-4.677-1.443c0 0-1.727-1.082 1.223-2.164 7.195-3.391 16.045-6.854 23.887-10.1z"></path>
</symbol>
<symbol id="icon-arrow" viewBox="0 0 32 32">
<path   d="M31.089 22.634l-1.822 1.822-13.266-13.266-13.266 13.266-1.822-1.822 15.089-15.089z"></path>
<path   d="M29.266 25.367l-13.266-13.266-13.266 13.266-2.734-2.734 16-16 16 16-2.734 2.734zM16 10.279l13.266 13.266 0.911-0.911-14.178-14.178-14.178 14.178 0.911 0.911 13.266-13.266z"></path>
</symbol>
<symbol id="icon-github" viewBox="0 0 32 32">
<path d="M16 0.396c-8.839 0-16 7.167-16 16 0 7.073 4.584 13.068 10.937 15.183 0.803 0.151 1.093-0.344 1.093-0.772 0-0.38-0.009-1.385-0.015-2.719-4.453 0.964-5.391-2.151-5.391-2.151-0.729-1.844-1.781-2.339-1.781-2.339-1.448-0.989 0.115-0.968 0.115-0.968 1.604 0.109 2.448 1.645 2.448 1.645 1.427 2.448 3.744 1.74 4.661 1.328 0.14-1.031 0.557-1.74 1.011-2.135-3.552-0.401-7.287-1.776-7.287-7.907 0-1.751 0.62-3.177 1.645-4.297-0.177-0.401-0.719-2.031 0.141-4.235 0 0 1.339-0.427 4.4 1.641 1.281-0.355 2.641-0.532 4-0.541 1.36 0.009 2.719 0.187 4 0.541 3.043-2.068 4.381-1.641 4.381-1.641 0.859 2.204 0.317 3.833 0.161 4.235 1.015 1.12 1.635 2.547 1.635 4.297 0 6.145-3.74 7.5-7.296 7.891 0.556 0.479 1.077 1.464 1.077 2.959 0 2.14-0.020 3.864-0.020 4.385 0 0.416 0.28 0.916 1.104 0.755 6.4-2.093 10.979-8.093 10.979-15.156 0-8.833-7.161-16-16-16z"></path>
</symbol>
<symbol id="icon-menu" viewBox="0 0 32 32">
<path d="M26 16c0 1.104-0.896 2-2 2h-16c-1.104 0-2-0.896-2-2s0.896-2 2-2h16c1.104 0 2 0.896 2 2z"></path>
<path d="M26 8c0 1.104-0.896 2-2 2h-16c-1.104 0-2-0.896-2-2s0.896-2 2-2h16c1.104 0 2 0.896 2 2z"></path>
<path d="M26 24c0 1.104-0.896 2-2 2h-16c-1.104 0-2-0.896-2-2s0.896-2 2-2h16c1.104 0 2 0.896 2 2z"></path>
</symbol>
<symbol id="icon-mark" viewBox="0 0 42 32">
<path fill="#fff" style="fill: var(--color1, #fff); stroke: var(--color1, #fff)" stroke="#fff" stroke-linejoin="miter" stroke-linecap="butt" stroke-miterlimit="4" stroke-width="0.64" d="M6.263 15.205l-0.22-0.21-3.307 3.132 11.651 11.114 24.477-23.351-3.285-3.134-21.192 20.197-8.124-7.75z"></path>
</symbol>
<symbol id="icon-tel" viewBox="0 0 32 32">
<path d="M27.419 20.853l-4.201-0.48c-0.116-0.014-0.25-0.023-0.385-0.023-0.909 0-1.732 0.369-2.328 0.964l-3.045 3.045c-4.718-2.435-8.467-6.185-10.835-10.764l-0.065-0.139 3.063-3.056c0.596-0.596 0.964-1.419 0.964-2.328 0-0.136-0.008-0.27-0.024-0.401l0.002 0.016-0.48-4.169c-0.199-1.655-1.595-2.926-3.287-2.926-0.001 0-0.003 0-0.004 0h-2.861c-1.87-0.005-3.424 1.55-3.31 3.417 0.878 14.126 12.176 25.408 26.286 26.286 1.867 0.114 3.424-1.44 3.424-3.31v-2.862c0-0.005 0-0.010 0-0.016 0-1.681-1.266-3.067-2.897-3.256l-0.015-0.001z"></path>
</symbol>
<symbol id="icon-instagram" viewBox="0 0 32 32">
<path d="M31.968 9.408c-0.074-1.701-0.349-2.869-0.742-3.882-0.424-1.111-1.054-2.059-1.85-2.837l-0.001-0.001c-0.78-0.792-1.724-1.419-2.778-1.827l-0.054-0.018c-1.019-0.394-2.181-0.667-3.882-0.742-1.712-0.082-2.256-0.101-6.602-0.101-4.344 0-4.888 0.019-6.595 0.094-1.699 0.074-2.869 0.349-3.88 0.742-1.112 0.424-2.060 1.054-2.839 1.85l-0.001 0.001c-0.791 0.78-1.418 1.724-1.825 2.778l-0.018 0.054c-0.395 1.019-0.669 2.181-0.744 3.882-0.082 1.712-0.101 2.256-0.101 6.602 0 4.344 0.019 4.888 0.094 6.595 0.075 1.701 0.35 2.869 0.744 3.882 0.426 1.11 1.055 2.057 1.849 2.837l0.001 0.001c0.8 0.813 1.77 1.443 2.832 1.843 1.019 0.395 2.182 0.67 3.882 0.744 1.707 0.075 2.251 0.094 6.595 0.094 4.346 0 4.89-0.019 6.595-0.094 1.701-0.074 2.869-0.349 3.882-0.742 2.157-0.85 3.833-2.526 4.664-4.628l0.019-0.055c0.394-1.019 0.669-2.182 0.744-3.882 0.075-1.707 0.093-2.251 0.093-6.595s-0.006-4.888-0.080-6.595zM29.088 22.474c-0.070 1.563-0.333 2.406-0.55 2.97-0.552 1.399-1.64 2.486-3.004 3.024l-0.036 0.012c-0.56 0.219-1.411 0.482-2.968 0.55-1.688 0.075-2.194 0.094-6.464 0.094-4.269 0-4.782-0.019-6.464-0.094-1.563-0.069-2.406-0.331-2.97-0.55-0.721-0.269-1.334-0.676-1.836-1.192l-0.001-0.001c-0.517-0.503-0.924-1.117-1.184-1.803l-0.011-0.034c-0.218-0.563-0.48-1.413-0.549-2.97-0.075-1.688-0.094-2.195-0.094-6.464 0-4.27 0.019-4.784 0.094-6.464 0.069-1.563 0.331-2.406 0.549-2.97 0.269-0.722 0.678-1.337 1.198-1.837l0.002-0.002c0.504-0.517 1.119-0.923 1.806-1.182l0.034-0.011c0.56-0.219 1.411-0.48 2.968-0.55 1.688-0.074 2.195-0.093 6.464-0.093 4.275 0 4.782 0.019 6.464 0.093 1.563 0.069 2.406 0.331 2.97 0.55 0.693 0.256 1.325 0.662 1.837 1.194 0.531 0.52 0.938 1.144 1.195 1.84 0.218 0.56 0.48 1.411 0.549 2.968 0.075 1.688 0.094 2.194 0.094 6.464 0 4.269-0.019 4.768-0.094 6.458z"></path>
<path d="M16.059 7.782c-4.539 0.002-8.218 3.682-8.219 8.221v0c0.091 4.471 3.737 8.060 8.221 8.060s8.13-3.589 8.221-8.052l0-0.009c-0.001-4.54-3.681-8.22-8.221-8.221h-0zM16.059 21.334c-2.945-0-5.332-2.388-5.332-5.333s2.388-5.333 5.333-5.333c0 0 0.001 0 0.001 0h-0c2.946 0 5.334 2.388 5.334 5.334s-2.388 5.334-5.334 5.334v0zM26.525 7.458c0 1.060-0.86 1.92-1.92 1.92s-1.92-0.86-1.92-1.92v0c0-1.060 0.86-1.92 1.92-1.92s1.92 0.86 1.92 1.92v0z"></path>
</symbol>
<symbol id="icon-facebook" viewBox="0 0 32 32">
<path d="M21.328 5.312h2.923v-5.088c-1.232-0.143-2.66-0.224-4.107-0.224-0.052 0-0.104 0-0.157 0l0.008-0c-4.213 0-7.099 2.65-7.099 7.52v4.48h-4.646v5.688h4.646v14.312h5.699v-14.31h4.459l0.709-5.688h-5.17v-3.922c0-1.643 0.443-2.768 2.734-2.768z"></path>
</symbol>
<symbol id="icon-mail" viewBox="0 0 43 32">
<path d="M38.667 0h-34.667c-2.206 0-4 1.794-4 4v24c0 2.206 1.794 4 4 4h34.667c2.206 0 4-1.794 4-4v-24c0-2.206-1.794-4-4-4zM38.667 2.667c0.181 0 0.353 0.038 0.511 0.103l-17.844 15.466-17.844-15.466c0.151-0.065 0.327-0.103 0.511-0.103h34.667zM38.667 29.333h-34.667c-0.736-0.001-1.332-0.597-1.333-1.333v-22.413l17.793 15.421c0.233 0.202 0.539 0.326 0.874 0.326s0.641-0.123 0.876-0.327l-0.002 0.001 17.793-15.421v22.413c0 0.736-0.598 1.333-1.333 1.333z"></path>
</symbol>
<symbol id="icon-pencil" viewBox="0 0 32 32">
<path d="M12 20l4-2 14-14-2-2-14 14-2 4zM9.041 27.097c-0.989-2.085-2.052-3.149-4.137-4.137l3.097-8.525 4-2.435 12-12h-6l-12 12-6 20 20-6 12-12v-6l-12 12-2.435 4z"></path>
</symbol>
<symbol id="icon-cursor" viewBox="0 0 32 32">
<path d="M32 12.57l-32-12.57 12.57 32 2.973-11.655 10.767 10.767 4.802-4.802-10.767-10.767z"></path>
</symbol>
<symbol id="icon-check" viewBox="0 0 32 32">
<path d="M27 4l-15 15-7-7-5 5 12 12 20-20z"></path>
</symbol>
<symbol id="icon-cross" viewBox="0 0 32 32">
<path d="M31.708 25.708c-0-0-0-0-0-0l-9.708-9.708 9.708-9.708c0-0 0-0 0-0 0.105-0.105 0.18-0.227 0.229-0.357 0.133-0.356 0.057-0.771-0.229-1.057l-4.586-4.586c-0.286-0.286-0.702-0.361-1.057-0.229-0.13 0.048-0.252 0.124-0.357 0.228 0 0-0 0-0 0l-9.708 9.708-9.708-9.708c-0-0-0-0-0-0-0.105-0.104-0.227-0.18-0.357-0.228-0.356-0.133-0.771-0.057-1.057 0.229l-4.586 4.586c-0.286 0.286-0.361 0.702-0.229 1.057 0.049 0.13 0.124 0.252 0.229 0.357 0 0 0 0 0 0l9.708 9.708-9.708 9.708c-0 0-0 0-0 0-0.104 0.105-0.18 0.227-0.229 0.357-0.133 0.355-0.057 0.771 0.229 1.057l4.586 4.586c0.286 0.286 0.702 0.361 1.057 0.229 0.13-0.049 0.252-0.124 0.357-0.229 0-0 0-0 0-0l9.708-9.708 9.708 9.708c0 0 0 0 0 0 0.105 0.105 0.227 0.18 0.357 0.229 0.356 0.133 0.771 0.057 1.057-0.229l4.586-4.586c0.286-0.286 0.362-0.702 0.229-1.057-0.049-0.13-0.124-0.252-0.229-0.357z"></path>
</symbol>
<symbol id="icon-up" viewBox="0 0 32 32">
<path d="M16 0c-8.836 0-16 7.164-16 16s7.163 16 16 16 16-7.164 16-16c0-8.836-7.164-16-16-16zM23.22 20.244c-0.583 0.583-1.529 0.583-2.113 0l-5.148-5.149-5.176 5.175c-0.583 0.583-1.529 0.583-2.113 0-0.291-0.292-0.437-0.674-0.437-1.057s0.146-0.764 0.438-1.056l6.004-6.005c0.057-0.089 0.123-0.175 0.201-0.253 0.298-0.298 0.691-0.442 1.082-0.435 0.391-0.007 0.784 0.137 1.082 0.435 0.078 0.078 0.144 0.163 0.201 0.252l5.978 5.978c0.583 0.583 0.584 1.529 0 2.113z"></path>
</symbol>
<symbol id="icon-tiktok" viewBox="0 0 32 32">
<path d="M16.707 0.027c1.747-0.027 3.48-0.013 5.213-0.027 0.107 2.040 0.84 4.12 2.333 5.56 1.493 1.48 3.6 2.16 5.653 2.387v5.373c-1.92-0.067-3.853-0.467-5.6-1.293-0.76-0.347-1.467-0.787-2.16-1.24-0.013 3.893 0.013 7.787-0.027 11.667-0.107 1.867-0.72 3.72-1.8 5.253-1.747 2.56-4.773 4.227-7.88 4.28-1.907 0.107-3.813-0.413-5.44-1.373-2.693-1.587-4.587-4.493-4.867-7.613-0.027-0.667-0.040-1.333-0.013-1.987 0.24-2.533 1.493-4.96 3.44-6.613 2.213-1.92 5.307-2.84 8.2-2.293 0.027 1.973-0.053 3.947-0.053 5.92-1.32-0.427-2.867-0.307-4.027 0.493-0.84 0.547-1.48 1.387-1.813 2.333-0.28 0.68-0.2 1.427-0.187 2.147 0.32 2.187 2.427 4.027 4.667 3.827 1.493-0.013 2.92-0.88 3.693-2.147 0.253-0.44 0.533-0.893 0.547-1.413 0.133-2.387 0.080-4.76 0.093-7.147 0.013-5.373-0.013-10.733 0.027-16.093z"></path>
</symbol>
<symbol id="icon-play" viewBox="0 0 32 32">
<path  d="M7.385 0c-2.116 0-3.829 1.691-3.829 3.778v24.444c0 1.394 0.777 2.674 2.023 3.332 1.244 0.658 2.756 0.585 3.931-0.188l17.232-12.222c1.030-0.681 1.701-1.834 1.703-3.143v-0c0-1.262-0.64-2.443-1.707-3.143l-17.228-12.222c-0.597-0.398-1.332-0.635-2.121-0.635-0.001 0-0.002 0-0.004 0h0z"></path>
</symbol>
<symbol id="icon-pause" viewBox="0 0 32 32">
<path d="M12.093 27.543c0 2.462-1.996 4.457-4.457 4.457v0c-2.462 0-4.457-1.996-4.457-4.457v-23.086c0-2.462 1.996-4.457 4.457-4.457v0c2.462 0 4.457 1.996 4.457 4.457v23.086z"></path>
<path d="M28.821 27.543c0 2.462-1.996 4.457-4.457 4.457v0c-2.462 0-4.457-1.996-4.457-4.457v-23.086c0.001-2.462 1.996-4.457 4.457-4.457v0c2.462 0 4.457 1.996 4.457 4.457v23.086z"></path>
</symbol>
</defs>
</svg>
